<svg width="36" height="36" viewBox="0 0 36 36" fill="none" xmlns="http://www.w3.org/2000/svg">
<g id="book" clip-path="url(#clip0_2310_4542)">
<path id="Vector" d="M4.5 28.5001C6.55226 27.3152 8.88026 26.6914 11.25 26.6914C13.6197 26.6914 15.9477 27.3152 18 28.5001C20.0523 27.3152 22.3803 26.6914 24.75 26.6914C27.1197 26.6914 29.4477 27.3152 31.5 28.5001" stroke="#4C1595" stroke-width="1.5" stroke-linecap="round" stroke-linejoin="round"/>
<path id="Vector_2" d="M4.5 9.00006C6.55226 7.81519 8.88026 7.19141 11.25 7.19141C13.6197 7.19141 15.9477 7.81519 18 9.00006C20.0523 7.81519 22.3803 7.19141 24.75 7.19141C27.1197 7.19141 29.4477 7.81519 31.5 9.00006" stroke="#4C1595" stroke-width="1.5" stroke-linecap="round" stroke-linejoin="round"/>
<path id="Vector_3" d="M4.5 9V28.5" stroke="#4C1595" stroke-width="1.5" stroke-linecap="round" stroke-linejoin="round"/>
<path id="Vector_4" d="M18 9V28.5" stroke="#4C1595" stroke-width="1.5" stroke-linecap="round" stroke-linejoin="round"/>
<path id="Vector_5" d="M31.5 9V28.5" stroke="#4C1595" stroke-width="1.5" stroke-linecap="round" stroke-linejoin="round"/>
</g>
<defs>
<clipPath id="clip0_2310_4542">
<rect width="36" height="36" fill="white"/>
</clipPath>
</defs>
</svg>
