<svg width="36" height="36" viewBox="0 0 36 36" fill="none" xmlns="http://www.w3.org/2000/svg">
<g id="writing-sign" clip-path="url(#clip0_2310_1961)">
<path id="Vector" d="M4.5 28.5C9.4995 25.5 12 22.5 12 19.5C12 15 10.5 15 9 15C7.5 15 5.952 16.6275 6 19.5C6.051 22.572 8.487 23.8155 9.75 25.5C12 28.5 13.5 29.25 15 27C16.0005 25.5 16.7505 24.2505 17.25 23.25C18.75 26.7495 20.7495 28.5 23.25 28.5H27" stroke="#4C1595" stroke-width="1.5" stroke-linecap="round" stroke-linejoin="round"/>
<path id="Vector_2" d="M30 25.5V7.5C30 5.8185 28.6815 4.5 27 4.5C25.3185 4.5 24 5.8185 24 7.5V25.5L27 28.5L30 25.5Z" stroke="#4C1595" stroke-width="1.5" stroke-linecap="round" stroke-linejoin="round"/>
<path id="Vector_3" d="M24 10.5H30" stroke="#4C1595" stroke-width="1.5" stroke-linecap="round" stroke-linejoin="round"/>
</g>
<defs>
<clipPath id="clip0_2310_1961">
<rect width="36" height="36" fill="white"/>
</clipPath>
</defs>
</svg>
