<svg width="18" height="18" viewBox="0 0 18 18" fill="none" xmlns="http://www.w3.org/2000/svg">
<g id="heart" clip-path="url(#clip0_3008_27031)">
<path id="Vector" d="M14.6269 9.42877L9.00193 14.9998L3.37693 9.42877C3.00591 9.06773 2.71367 8.63378 2.5186 8.15424C2.32352 7.67471 2.22986 7.15998 2.24349 6.64247C2.25712 6.12495 2.37776 5.61587 2.5978 5.14727C2.81785 4.67867 3.13254 4.26071 3.52205 3.9197C3.91156 3.5787 4.36746 3.32203 4.86104 3.16588C5.35462 3.00972 5.87519 2.95745 6.38996 3.01237C6.90473 3.06728 7.40256 3.22818 7.85209 3.48495C8.30162 3.74171 8.69312 4.08877 9.00193 4.50427C9.31209 4.09178 9.70404 3.74776 10.1533 3.49372C10.6025 3.23968 11.0993 3.0811 11.6126 3.02791C12.126 2.97471 12.6447 3.02804 13.1365 3.18456C13.6283 3.34108 14.0825 3.59742 14.4706 3.93754C14.8587 4.27766 15.1725 4.69423 15.3923 5.16119C15.612 5.62814 15.733 6.13543 15.7477 6.6513C15.7623 7.16717 15.6704 7.68051 15.4775 8.1592C15.2847 8.6379 14.9951 9.07163 14.6269 9.43327" stroke="#78716C" stroke-width="1.125" stroke-linecap="round" stroke-linejoin="round"/>
</g>
<defs>
<clipPath id="clip0_3008_27031">
<rect width="18" height="18" fill="white"/>
</clipPath>
</defs>
</svg>
